<svg width="18" height="24" viewBox="0 0 18 24" fill="none" xmlns="http://www.w3.org/2000/svg">
    <path d="M10.8563 2.646C10.3021 1.83097 9.81304 1.08113 9.35662 0.396502C9.29142 0.298697 9.19362 0.200893 9.09581 0.13569C8.70459 -0.125122 8.18297 0.0052838 7.92216 0.396502C7.49834 1.08113 7.00932 1.79837 6.42249 2.646C3.84697 6.42778 0 12.133 0 15.3932C0 17.7731 0.978044 19.9248 2.54291 21.4897C4.10779 23.0219 6.25948 24 8.63939 24C11.0193 24 13.171 23.0219 14.7359 21.4571C16.3007 19.8922 17.2788 17.7405 17.2788 15.3606C17.2788 12.1004 13.4318 6.42778 10.8563 2.646ZM13.5622 20.2834C12.2908 21.5549 10.5629 22.3047 8.63939 22.3047C6.7159 22.3047 4.98803 21.5223 3.71657 20.2834C2.44511 19.012 1.69528 17.2841 1.69528 15.3606C1.69528 12.6221 5.37924 7.17761 7.82435 3.55885C8.11777 3.13503 8.37858 2.71121 8.63939 2.35259C8.9002 2.71121 9.16101 3.13503 9.45443 3.55885C11.8995 7.21021 15.5835 12.6221 15.5835 15.3606C15.5835 17.2841 14.8011 19.012 13.5622 20.2834Z" fill="black"/>
    <path d="M13.6926 14.7738C13.2362 14.7412 12.845 15.0998 12.8124 15.5562C12.7798 16.2734 12.5515 16.9581 12.1929 17.5449C11.8343 18.1317 11.3127 18.6533 10.6933 18.9794C10.302 19.2076 10.139 19.7292 10.3672 20.1204C10.6281 20.5768 11.1497 20.7072 11.5409 20.479C12.4211 19.99 13.1384 19.2728 13.6274 18.4577C14.149 17.6427 14.4424 16.6646 14.475 15.654C14.5076 15.1976 14.149 14.8064 13.6926 14.7738Z" fill="black"/>
</svg>
