<svg width="24" height="24" viewBox="0 0 24 24" fill="none" xmlns="http://www.w3.org/2000/svg">
    <path d="M11.9987 20.0333C11.5464 20.0333 11.1797 20.4 11.1797 20.8523V23.1808C11.1797 23.6331 11.5464 23.9998 11.9987 23.9998C12.4511 23.9998 12.8177 23.6331 12.8177 23.1808V20.8523C12.8177 20.3999 12.451 20.0333 11.9987 20.0333Z" fill="black"/>
    <path d="M11.9987 3.96703C12.4511 3.96703 12.8177 3.60035 12.8177 3.14805V0.819314C12.8177 0.36702 12.4511 0.000335693 11.9987 0.000335693C11.5464 0.000335693 11.1797 0.36702 11.1797 0.819314V3.14805C11.1797 3.60035 11.5464 3.96703 11.9987 3.96703Z" fill="black"/>
    <path d="M5.16165 17.68L3.51452 19.3262C3.19457 19.646 3.19446 20.1645 3.51419 20.4844C3.67416 20.6444 3.88382 20.7244 4.09348 20.7244C4.30303 20.7244 4.51247 20.6445 4.67244 20.4847L6.31957 18.8385C6.63952 18.5187 6.63963 18.0001 6.3199 17.6803C5.99995 17.3604 5.48148 17.3604 5.16165 17.68Z" fill="black"/>
    <path d="M18.2587 6.55916C18.4682 6.55916 18.6778 6.47923 18.8377 6.31936L20.4846 4.67311C20.8045 4.35327 20.8046 3.8348 20.4849 3.51486C20.165 3.19491 19.6466 3.1948 19.3266 3.51475L17.6797 5.161C17.3599 5.48073 17.3598 5.99931 17.6795 6.31915C17.8394 6.47923 18.049 6.55916 18.2587 6.55916Z" fill="black"/>
    <path d="M3.96648 12.0002C3.96648 11.5479 3.59979 11.1812 3.1475 11.1812H0.818979C0.366684 11.1812 0 11.5479 0 12.0002C0 12.4525 0.366684 12.8192 0.818979 12.8192H3.1475C3.59979 12.8192 3.96648 12.4525 3.96648 12.0002Z" fill="black"/>
    <path d="M23.181 11.1812H20.8514C20.399 11.1812 20.0324 11.5479 20.0324 12.0002C20.0324 12.4525 20.399 12.8192 20.8514 12.8192H23.181C23.6334 12.8192 24 12.4525 24 12.0002C24 11.548 23.6334 11.1812 23.181 11.1812Z" fill="black"/>
    <path d="M5.1614 6.31935C5.32127 6.47922 5.53092 6.55915 5.74047 6.55915C5.95002 6.55915 6.15968 6.47922 6.31955 6.31935C6.63938 5.99951 6.63938 5.48094 6.31955 5.1611L4.67329 3.51484C4.35345 3.195 3.83488 3.195 3.51515 3.51484C3.19531 3.83468 3.19531 4.35326 3.51515 4.67299L5.1614 6.31935Z" fill="black"/>
    <path d="M18.8387 17.6802C18.5188 17.3604 18.0002 17.3603 17.6804 17.6801C17.3605 18 17.3605 18.5186 17.6803 18.8383L19.3263 20.4845C19.4863 20.6445 19.6959 20.7244 19.9055 20.7244C20.1151 20.7244 20.3247 20.6445 20.4846 20.4847C20.8045 20.1648 20.8045 19.6462 20.4847 19.3265L18.8387 17.6802Z" fill="black"/>
    <path d="M11.9996 5.62561C8.48486 5.62561 5.62543 8.48526 5.62543 12.0002C5.62543 15.515 8.48486 18.3746 11.9996 18.3746C15.5147 18.3746 18.3743 15.515 18.3743 12.0002C18.3743 8.48526 15.5145 5.62561 11.9996 5.62561ZM11.9996 16.7366C9.38803 16.7366 7.26339 14.6119 7.26339 12.0002C7.26339 9.38843 9.38803 7.26357 11.9996 7.26357C14.6115 7.26357 16.7364 9.38843 16.7364 12.0002C16.7364 14.6119 14.6115 16.7366 11.9996 16.7366Z" fill="black"/>
</svg>
