<svg width="28" height="20" viewBox="0 0 28 20" fill="none" xmlns="http://www.w3.org/2000/svg">
    <path d="M1.03019 10.7907C2.60769 12.1437 4.39561 13.6774 7.85399 13.6774C11.3125 13.6774 13.1005 12.1437 14.6781 10.7907C16.1699 9.51108 17.4584 8.40593 20.1458 8.40593C22.8332 8.40593 24.1216 9.51108 25.6135 10.7907C26.0502 11.1652 26.7078 11.1149 27.0823 10.6782C27.4569 10.2415 27.4065 9.5839 26.9698 9.20936C25.3923 7.8563 23.6042 6.3226 20.1458 6.3226C16.6873 6.3226 14.8993 7.85624 13.3217 9.20936C11.8298 10.4889 10.5414 11.5941 7.85399 11.5941C5.16665 11.5941 3.87837 10.489 2.38659 9.20936C1.94993 8.83483 1.29232 8.88509 0.91774 9.32181C0.543157 9.75848 0.593522 10.4161 1.03019 10.7907Z" fill="black"/>
    <path d="M1.03019 5.09307C2.60764 6.4462 4.39555 7.97984 7.85399 7.97984C11.3125 7.97984 13.1005 6.4462 14.6781 5.09307C16.1699 3.81349 17.4583 2.70833 20.1458 2.70833C22.8331 2.70833 24.1215 3.81344 25.6135 5.09307C26.0502 5.46771 26.7077 5.41724 27.0823 4.98052C27.4569 4.54385 27.4064 3.88615 26.9697 3.51167C25.3922 2.15854 23.6041 0.625 20.1458 0.625C16.6873 0.625 14.8993 2.15865 13.3217 3.51177C11.8298 4.79135 10.5414 5.89651 7.85399 5.89651C5.1667 5.89651 3.87837 4.79141 2.38659 3.51177C1.94993 3.13719 1.29227 3.1875 0.91774 3.62422C0.543157 4.06089 0.593522 4.71854 1.03019 5.09307Z" fill="black"/>
    <path d="M26.9698 14.9069C25.3923 13.5539 23.6043 12.0202 20.1458 12.0202C16.6873 12.0202 14.8993 13.5538 13.3217 14.9069C11.8298 16.1865 10.5414 17.2917 7.85401 17.2917C5.16682 17.2917 3.87843 16.1866 2.38666 14.907L2.38656 14.9069C1.94989 14.5325 1.29234 14.5828 0.917758 15.0194C0.543227 15.4561 0.593591 16.1138 1.03026 16.4883C2.60776 17.8414 4.39573 19.375 7.85401 19.375C11.3125 19.375 13.1005 17.8414 14.6781 16.4882C16.1699 15.2087 17.4584 14.1035 20.1458 14.1035C22.8332 14.1035 24.1217 15.2087 25.6135 16.4882C26.0502 16.8628 26.7078 16.8125 27.0823 16.3758C27.4569 15.9391 27.4066 15.2815 26.9698 14.9069Z" fill="black"/>
</svg>
